<svg xmlns="http://www.w3.org/2000/svg" width="420" height="300" viewBox="0 0 420 300">
<defs>
  <linearGradient id="sky" x1="0" y1="0" x2="0" y2="1"><stop offset="0" stop-color="#bfe7f4"/><stop offset="1" stop-color="#f5e8bf"/></linearGradient>
  <linearGradient id="grass" x1="0" y1="0" x2="0" y2="1"><stop offset="0" stop-color="#9fc982"/><stop offset="1" stop-color="#6e9f68"/></linearGradient>
  <filter id="shadow"><feDropShadow dx="0" dy="5" stdDeviation="4" flood-color="#5c4632" flood-opacity=".25"/></filter>
  <filter id="soft"><feGaussianBlur stdDeviation="6"/></filter>
</defs>
<rect width="420" height="300" rx="28" fill="url(#sky)"/>
<path d="M0 205Q88 161 179 203T420 194V300H0Z" fill="url(#grass)"/>
<ellipse cx="210" cy="250" rx="150" ry="25" fill="#4f6f46" opacity=".2"/>
<g filter="url(#shadow)">
  <rect x="102" y="119" width="216" height="122" rx="18" fill="#6c6da0" stroke="#343858" stroke-width="8"/>
  <path d="M93 127h234l-22-46H115Z" fill="#3c426e" stroke="#282c49" stroke-width="8"/>
  <circle cx="139" cy="104" r="8" fill="#f2c867"/><circle cx="170" cy="99" r="8" fill="#e68ba8"/><circle cx="201" cy="96" r="8" fill="#77c4be"/><circle cx="232" cy="99" r="8" fill="#e68ba8"/><circle cx="263" cy="104" r="8" fill="#f2c867"/>
  <rect x="132" y="151" width="56" height="73" rx="8" fill="#272c4e" stroke="#f2c867" stroke-width="4"/>
  <rect x="232" y="151" width="56" height="73" rx="8" fill="#272c4e" stroke="#75c4bf" stroke-width="4"/>
  <rect x="197" y="169" width="28" height="72" rx="13" fill="#c66c8e"/>
  <path d="M145 170h30M245 170h30" stroke="#fff1a5" stroke-width="7" stroke-linecap="round"/>
  <circle cx="158" cy="195" r="9" fill="#e37f9d"/><circle cx="258" cy="195" r="9" fill="#6ac3b6"/>
  <path d="M112 245q20-22 38 0M273 245q20-22 38 0" fill="none" stroke="#676b94" stroke-width="10"/>
</g>
<rect x="103" y="258" width="214" height="30" rx="15" fill="#fff4d4" stroke="#756047" stroke-width="4"/>
<text x="210" y="278" text-anchor="middle" font-family="Georgia,serif" font-size="18" font-weight="700" fill="#5d4c3b">ARCADE LANE</text>
<circle cx="36" cy="40" r="16" fill="#fff7c5" opacity=".9"/><circle cx="63" cy="36" r="8" fill="#fff" opacity=".65"/>
</svg>