<svg xmlns="http://www.w3.org/2000/svg" width="760" height="420" viewBox="0 0 760 420"><defs><linearGradient id="w" x2="0" y2="1"><stop stop-color="#f3dfd2"/><stop offset="1" stop-color="#e1c8b4"/></linearGradient><linearGradient id="f" x2="0" y2="1"><stop stop-color="#c8a77d"/><stop offset="1" stop-color="#a98461"/></linearGradient></defs><rect width="760" height="420" fill="url(#w)"/><path d="M0 295h760v125H0z" fill="url(#f)"/><path d="M0 295h760" stroke="#80684e" stroke-width="8"/><g opacity=".16" fill="#9a725f"><path d="M40 45l12 12-12 12-12-12zM110 72l10 10-10 10-10-10zM195 46l12 12-12 12-12-12zM625 55l12 12-12 12-12-12zM690 90l10 10-10 10-10-10z"/></g><rect x="54" y="62" width="166" height="154" rx="14" fill="#bfe2e9" stroke="#8c6c56" stroke-width="11"/><path d="M137 62v154M54 139h166" stroke="#fff3df" stroke-width="8"/><path d="M60 192q72-74 154 0" fill="#8db879"/><circle cx="185" cy="99" r="25" fill="#fff6ca"/><g transform="translate(516 72)"><rect width="177" height="129" rx="14" fill="#d5b896" stroke="#8a694f" stroke-width="8"/><path d="M20 39h137M20 76h137" stroke="#8a694f" stroke-width="7"/><g fill="#6d8a63"><circle cx="36" cy="26" r="15"/><circle cx="76" cy="62" r="15"/><circle cx="128" cy="25" r="14"/></g><g fill="#e6bd6d"><rect x="25" y="89" width="24" height="29" rx="4"/><rect x="92" y="90" width="29" height="28" rx="4"/></g></g><ellipse cx="382" cy="332" rx="230" ry="64" fill="#d89aa3"/><ellipse cx="382" cy="332" rx="183" ry="43" fill="#f1d7bb"/><ellipse cx="382" cy="332" rx="133" ry="28" fill="#9aac7b"/><g transform="translate(81 289)"><path d="M0 66h112l-9 48H10z" fill="#ae7b55" stroke="#75543c" stroke-width="6"/><circle cx="27" cy="56" r="25" fill="#e6a2a8"/><circle cx="71" cy="51" r="21" fill="#87ad94"/><circle cx="99" cy="59" r="18" fill="#e0bf68"/></g><g transform="translate(575 284)"><path d="M0 93h111V32Q56 0 0 32Z" fill="#be8f79" stroke="#7d604f" stroke-width="6"/><path d="M18 38q38-30 75 0" fill="#edd2bf"/></g><path d="M312 111h142" stroke="#9b785e" stroke-width="9"/><path d="M332 111v63M434 111v63" stroke="#9b785e" stroke-width="7"/><g fill="#e8b6c2"><circle cx="357" cy="118" r="11"/><circle cx="410" cy="120" r="11"/></g></svg>