<svg xmlns="http://www.w3.org/2000/svg" width="1000" height="520" viewBox="0 0 1000 520"><defs><linearGradient id="sky" x2="0" y2="1"><stop stop-color="#bce7f4"/><stop offset="1" stop-color="#f8e8ba"/></linearGradient><linearGradient id="grass" x2="0" y2="1"><stop stop-color="#9dcc82"/><stop offset="1" stop-color="#6fa168"/></linearGradient></defs><rect width="1000" height="520" fill="url(#sky)"/><circle cx="824" cy="76" r="48" fill="#fff2a9"/><g fill="#fff" opacity=".72"><ellipse cx="166" cy="77" rx="67" ry="23"/><ellipse cx="210" cy="67" rx="46" ry="25"/><ellipse cx="684" cy="115" rx="78" ry="22"/><ellipse cx="730" cy="105" rx="43" ry="22"/></g><path d="M0 278Q180 180 369 274T720 250T1000 260V520H0Z" fill="#8cbd77"/><path d="M0 349Q210 266 420 356T1000 317V520H0Z" fill="url(#grass)"/><path d="M433 520Q459 421 516 351Q571 286 619 248" fill="none" stroke="#e7cf9d" stroke-width="84" stroke-linecap="round"/><path d="M434 520Q461 423 516 352Q570 288 618 250" fill="none" stroke="#f3dfb5" stroke-width="60" stroke-linecap="round"/><ellipse cx="780" cy="398" rx="128" ry="54" fill="#82c1c7" stroke="#5e938e" stroke-width="8"/><ellipse cx="780" cy="393" rx="100" ry="36" fill="#a9d8d8"/><g fill="#fff7c3"><circle cx="734" cy="383" r="5"/><circle cx="824" cy="407" r="4"/><circle cx="789" cy="371" r="3"/></g><g transform="translate(96 167)"><rect x="48" y="89" width="188" height="119" rx="15" fill="#e5c29a" stroke="#765640" stroke-width="8"/><path d="M31 98L142 11l111 87Z" fill="#8b5c4b" stroke="#654436" stroke-width="9"/><rect x="113" y="133" width="54" height="75" rx="25" fill="#6e8e61"/><rect x="70" y="126" width="30" height="37" fill="#c2e5ec" stroke="#745745" stroke-width="5"/><rect x="182" y="126" width="30" height="37" fill="#c2e5ec" stroke="#745745" stroke-width="5"/></g><g transform="translate(691 176)"><rect x="34" y="81" width="177" height="109" rx="13" fill="#f1d4dc" stroke="#775964" stroke-width="8"/><path d="M20 91h205l-21-52H41Z" fill="#8b6b9b" stroke="#665073" stroke-width="8"/><path d="M35 105h176" stroke="#fff0d9" stroke-width="20" stroke-dasharray="27 16"/><rect x="93" y="133" width="58" height="57" rx="22" fill="#c87281"/></g><g transform="translate(17 205)"><path d="M70 198v-141" stroke="#6b7452" stroke-width="24"/><circle cx="44" cy="69" r="60" fill="#6f9c64"/><circle cx="94" cy="45" r="68" fill="#78a66a"/><circle cx="121" cy="93" r="54" fill="#6c9a62"/><path d="M70 86q-19 67-57 95" fill="none" stroke="#82b172" stroke-width="16" stroke-linecap="round"/><path d="M87 83q19 65 59 91" fill="none" stroke="#82b172" stroke-width="16" stroke-linecap="round"/></g><g fill="#e9a3b5"><circle cx="315" cy="423" r="9"/><circle cx="339" cy="402" r="8"/><circle cx="647" cy="433" r="9"/><circle cx="664" cy="413" r="7"/></g><g fill="#f0ce69"><circle cx="294" cy="448" r="8"/><circle cx="683" cy="446" r="8"/></g><g fill="#fff6a9"><circle cx="116" cy="352" r="4"/><circle cx="203" cy="381" r="4"/><circle cx="895" cy="335" r="4"/><circle cx="917" cy="367" r="4"/></g></svg>